<?xml version="1.0" encoding="utf-8"?>
<!-- Generator: Adobe Illustrator 14.0.0, SVG Export Plug-In . SVG Version: 6.00 Build 43363)  -->
<!DOCTYPE svg PUBLIC "-//W3C//DTD SVG 1.1//EN" "http://www.w3.org/Graphics/SVG/1.1/DTD/svg11.dtd">
<svg version="1.1" id="Layer_1" xmlns="http://www.w3.org/2000/svg" xmlns:xlink="http://www.w3.org/1999/xlink" x="0px" y="0px"
	 width="30px" height="30px" viewBox="0 0 30 30" enable-background="new 0 0 30 30" xml:space="preserve">
<rect x="2.537" y="2.538" fill="#E2D8BF" stroke="#F9B800" stroke-width="4" width="24.925" height="24.925"/>
<rect x="9.716" y="8.194" fill="#FFFFFF" width="10.566" height="13.613"/>
<rect x="11.587" y="9.67" fill="#E2D8BF" width="6.825" height="1.549"/>
<rect x="11.587" y="12.641" fill="#E2D8BF" width="1.41" height="1.41"/>
<rect x="13.134" y="12.641" fill="#E2D8BF" width="1.41" height="1.41"/>
<rect x="14.681" y="12.641" fill="#E2D8BF" width="1.41" height="1.41"/>
<rect x="16.228" y="12.641" fill="#E2D8BF" width="1.41" height="1.41"/>
<rect x="11.587" y="14.188" fill="#E2D8BF" width="1.41" height="1.41"/>
<rect x="13.134" y="14.188" fill="#E2D8BF" width="1.41" height="1.41"/>
<rect x="14.681" y="14.188" fill="#E2D8BF" width="1.41" height="1.41"/>
<rect x="16.228" y="14.188" fill="#E2D8BF" width="1.41" height="1.41"/>
<rect x="11.587" y="15.734" fill="#E2D8BF" width="1.41" height="1.41"/>
<rect x="13.134" y="15.734" fill="#E2D8BF" width="1.41" height="1.41"/>
<rect x="14.681" y="15.734" fill="#E2D8BF" width="1.41" height="1.41"/>
<rect x="16.228" y="15.734" fill="#E2D8BF" width="1.41" height="1.41"/>
<rect x="11.587" y="17.281" fill="#E2D8BF" width="1.41" height="1.41"/>
<rect x="13.134" y="17.281" fill="#E2D8BF" width="1.41" height="1.41"/>
<rect x="14.681" y="17.281" fill="#E2D8BF" width="1.41" height="1.41"/>
<rect x="16.228" y="17.281" fill="#E2D8BF" width="1.41" height="1.41"/>
</svg>
