<?xml version="1.0" encoding="utf-8"?>
<!-- Generator: Adobe Illustrator 14.0.0, SVG Export Plug-In . SVG Version: 6.00 Build 43363)  -->
<!DOCTYPE svg PUBLIC "-//W3C//DTD SVG 1.1//EN" "http://www.w3.org/Graphics/SVG/1.1/DTD/svg11.dtd">
<svg version="1.1" id="Layer_1" xmlns="http://www.w3.org/2000/svg" xmlns:xlink="http://www.w3.org/1999/xlink" x="0px" y="0px"
	 width="30px" height="30px" viewBox="0 0 30 30" enable-background="new 0 0 30 30" xml:space="preserve">
<g>
	<path fill="#CEEAE5" d="M14.999,25.463C9.23,25.463,4.537,20.77,4.537,15c0-5.769,4.693-10.462,10.462-10.462
		c5.77,0,10.463,4.693,10.463,10.462C25.462,20.77,20.769,25.463,14.999,25.463L14.999,25.463z"/>
	<path fill="#6BF2F2" d="M14.999,6.538c4.666,0,8.463,3.796,8.463,8.462s-3.797,8.463-8.463,8.463S6.537,19.666,6.537,15
		S10.333,6.538,14.999,6.538 M14.999,2.538C8.116,2.538,2.537,8.117,2.537,15s5.58,12.463,12.462,12.463S27.462,21.883,27.462,15
		S21.882,2.538,14.999,2.538L14.999,2.538z"/>
</g>
<line fill="none" stroke="#FFFFFF" stroke-width="2" x1="10.744" y1="17.99" x2="14.706" y2="20.08"/>
<line fill="none" stroke="#FFFFFF" stroke-width="2" x1="14.454" y1="10.956" x2="18.416" y2="13.045"/>
<circle fill="none" stroke="#FFFFFF" stroke-width="0.5" cx="12.809" cy="16.792" r="0.648"/>
<circle fill="none" stroke="#FFFFFF" stroke-width="0.5" cx="14.413" cy="17.638" r="0.648"/>
<circle fill="none" stroke="#FFFFFF" stroke-width="0.5" cx="13.705" cy="15.094" r="0.648"/>
<circle fill="none" stroke="#FFFFFF" stroke-width="0.5" cx="15.308" cy="15.94" r="0.648"/>
<circle fill="none" stroke="#FFFFFF" stroke-width="0.5" cx="14.582" cy="13.431" r="0.648"/>
<circle fill="none" stroke="#FFFFFF" stroke-width="0.5" cx="17.442" cy="10.09" r="0.648"/>
<circle fill="none" stroke="#FFFFFF" stroke-width="0.5" cx="16.185" cy="14.277" r="0.648"/>
<polyline fill="none" stroke="#FFFFFF" stroke-width="0.5" points="18.209,10.922 19.896,11.812 18.521,17.87 "/>
</svg>
