<?xml version="1.0" encoding="utf-8"?>
<!-- Generator: Adobe Illustrator 14.0.0, SVG Export Plug-In . SVG Version: 6.00 Build 43363)  -->
<!DOCTYPE svg PUBLIC "-//W3C//DTD SVG 1.1//EN" "http://www.w3.org/Graphics/SVG/1.1/DTD/svg11.dtd">
<svg version="1.1" id="Layer_1" xmlns="http://www.w3.org/2000/svg" xmlns:xlink="http://www.w3.org/1999/xlink" x="0px" y="0px"
	 width="30px" height="30px" viewBox="0 0 30 30" enable-background="new 0 0 30 30" xml:space="preserve">
<g>
	<path fill="#C6C6C6" d="M14.999,25.463C9.23,25.463,4.537,20.77,4.537,15c0-5.769,4.693-10.462,10.462-10.462
		c5.77,0,10.463,4.693,10.463,10.462C25.462,20.77,20.769,25.463,14.999,25.463L14.999,25.463z"/>
	<path fill="#666666" d="M14.999,6.538c4.666,0,8.463,3.796,8.463,8.462s-3.797,8.463-8.463,8.463S6.537,19.666,6.537,15
		S10.333,6.538,14.999,6.538 M14.999,2.538C8.116,2.538,2.537,8.117,2.537,15s5.58,12.463,12.462,12.463S27.462,21.883,27.462,15
		S21.882,2.538,14.999,2.538L14.999,2.538z"/>
</g>
<line fill="none" stroke="#FFFFFF" stroke-width="2" x1="10.795" y1="17.855" x2="14.779" y2="19.904"/>
<line fill="none" stroke="#FFFFFF" stroke-width="2" x1="14.433" y1="10.783" x2="18.417" y2="12.832"/>
<circle fill="none" stroke="#FFFFFF" stroke-width="0.5" cx="17.413" cy="9.887" r="0.648"/>
<polyline fill="none" stroke="#FFFFFF" stroke-width="0.5" points="18.188,10.711 19.885,11.584 18.571,17.656 "/>
<rect x="12.601" y="12.203" transform="matrix(0.8893 0.4573 -0.4573 0.8893 8.7902 -4.8446)" fill="#FFFFFF" width="3.605" height="7.07"/>
</svg>
