<?xml version="1.0" encoding="utf-8"?>
<!-- Generator: Adobe Illustrator 14.0.0, SVG Export Plug-In . SVG Version: 6.00 Build 43363)  -->
<!DOCTYPE svg PUBLIC "-//W3C//DTD SVG 1.1//EN" "http://www.w3.org/Graphics/SVG/1.1/DTD/svg11.dtd">
<svg version="1.1" id="Layer_1" xmlns="http://www.w3.org/2000/svg" xmlns:xlink="http://www.w3.org/1999/xlink" x="0px" y="0px"
	 width="30px" height="30px" viewBox="0 0 30 30" enable-background="new 0 0 30 30" xml:space="preserve">
<g>
	<path fill="#D1ACAF" d="M14.999,25.463C9.23,25.463,4.537,20.77,4.537,15c0-5.769,4.693-10.462,10.462-10.462
		c5.77,0,10.463,4.693,10.463,10.462C25.462,20.77,20.769,25.463,14.999,25.463L14.999,25.463z"/>
	<path fill="#D81212" d="M14.999,6.538c4.666,0,8.463,3.796,8.463,8.462s-3.797,8.463-8.463,8.463S6.537,19.666,6.537,15
		S10.333,6.538,14.999,6.538 M14.999,2.538C8.116,2.538,2.537,8.117,2.537,15s5.58,12.463,12.462,12.463S27.462,21.883,27.462,15
		S21.882,2.538,14.999,2.538L14.999,2.538z"/>
</g>
<path fill="none" stroke="#FFFFFF" stroke-width="2" d="M10.438,20.375l3.313-5c0,0,1.031,5.219,1.031,5.281"/>
<line fill="none" stroke="#FFFFFF" stroke-width="2" x1="13.75" y1="12.406" x2="13.781" y2="15.531"/>
<circle fill="none" stroke="#FFFFFF" stroke-width="2" cx="14.125" cy="11.313" r="1.138"/>
<line fill="none" stroke="#FFFFFF" stroke-width="2" x1="13.781" y1="14.313" x2="19.25" y2="13.688"/>
<polyline fill="none" stroke="#FFFFFF" stroke-width="2" points="14.125,13.969 16.516,15.875 17.063,13.938 "/>
<line fill="none" stroke="#FFFFFF" stroke-width="2" x1="18.875" y1="13.156" x2="22.594" y2="12.938"/>
<polygon fill="#FFFFFF" points="14.999,2.538 11.438,7.333 18.5,7.333 "/>
</svg>
